<?xml version="1.0" standalone="no"?>
<!DOCTYPE svg PUBLIC "-//W3C//DTD SVG 20010904//EN"
 "http://www.w3.org/TR/2001/REC-SVG-20010904/DTD/svg10.dtd">
<svg version="1.0" xmlns="http://www.w3.org/2000/svg"
 width="900.000000pt" height="820.000000pt" viewBox="0 0 900.000000 820.000000"
 preserveAspectRatio="xMidYMid meet">
<metadata>
Created by potrace 1.16, written by Peter Selinger 2001-2019
</metadata>
<g transform="translate(0.000000,820.000000) scale(0.100000,-0.100000)"
fill="#000000" stroke="none">
<path d="M236 8075 c-3 -8 -3 -23 1 -32 3 -10 235 -248 515 -529 l509 -510
-19 -35 c-13 -22 -23 -68 -30 -133 l-10 -99 -45 -38 c-44 -38 -74 -93 -57
-104 10 -6 40 33 40 51 0 20 29 39 41 27 19 -19 -17 -69 -93 -128 -74 -57
-105 -94 -108 -130 -5 -42 1 -72 16 -91 14 -18 15 -15 11 33 -2 28 0 58 5 67
9 15 130 106 142 106 24 0 -171 -336 -212 -367 -16 -12 -39 -43 -52 -69 -12
-27 -49 -88 -81 -137 -91 -137 -91 -191 -2 -333 30 -49 63 -97 73 -108 23 -24
129 -33 201 -16 77 18 198 84 291 160 43 36 95 74 114 86 18 11 45 31 58 43
34 32 53 21 61 -33 8 -52 2 -105 -27 -226 -22 -91 -27 -205 -10 -222 6 -6 12
13 16 59 17 168 31 164 39 -9 6 -149 30 -259 74 -340 27 -50 115 -138 137
-138 6 0 -13 22 -42 48 -52 46 -54 50 -82 157 -62 229 -61 402 4 590 l34 99 7
-67 c10 -93 -22 -412 -51 -509 -3 -10 -1 -18 4 -18 13 0 22 25 32 85 4 28 19
93 33 146 20 75 27 131 32 255 8 204 11 224 35 224 10 0 22 5 25 10 3 6 11 10
16 10 7 0 8 -42 4 -123 -5 -81 -3 -141 4 -178 11 -53 23 -76 96 -179 25 -36
30 -55 33 -114 3 -62 1 -76 -20 -106 -31 -45 -74 -62 -94 -36 -7 10 -15 24
-17 30 -8 22 -19 -4 -13 -29 5 -18 19 -31 44 -42 34 -14 39 -14 71 3 86 47
107 203 39 296 -10 13 -7 23 15 55 28 41 34 68 17 78 -11 6 -14 0 -25 -48 -9
-44 -37 -31 -57 28 -22 63 -21 151 0 235 22 83 39 84 63 5 9 -33 34 -107 55
-165 37 -100 38 -111 39 -230 0 -122 -1 -127 -34 -193 -18 -37 -30 -71 -27
-74 12 -12 33 21 77 117 42 93 43 97 43 205 1 61 -3 153 -7 205 -7 77 -6 93 5
82 8 -8 14 -50 16 -120 2 -75 9 -123 24 -162 14 -38 23 -99 29 -195 14 -196
23 -247 64 -334 l36 -76 2 -205 c2 -113 8 -215 13 -228 7 -17 9 2 7 75 -2 85
-1 92 8 53 6 -28 7 -96 2 -180 -4 -74 -8 -259 -7 -410 0 -373 19 -474 138
-756 26 -61 58 -122 71 -134 39 -37 31 -4 -20 82 -112 188 -142 535 -74 870
38 192 49 151 18 -77 -15 -115 -6 -323 20 -475 24 -134 54 -250 145 -562 68
-236 109 -428 122 -583 l8 -90 9 60 c18 128 -3 297 -75 580 -82 331 -93 471
-13 190 29 -104 99 -336 155 -515 148 -473 152 -491 148 -581 -4 -58 -12 -91
-36 -143 -37 -78 -40 -99 -13 -71 11 11 34 61 52 110 28 78 33 102 32 185 0
85 -5 109 -46 235 -25 77 -65 210 -87 295 -23 85 -54 198 -70 250 -96 315
-124 492 -117 720 4 138 8 164 33 234 32 89 28 94 59 -64 28 -142 81 -284 195
-520 115 -239 159 -351 184 -474 18 -87 21 -192 5 -233 -15 -41 -69 -93 -96
-93 -49 0 -80 58 -70 131 5 39 5 40 -14 23 -43 -39 -13 -136 53 -170 42 -22
115 -20 147 4 69 51 101 203 82 387 -6 60 -14 121 -17 135 -9 45 53 -83 85
-174 18 -50 61 -207 96 -350 54 -216 65 -274 65 -344 0 -73 5 -96 41 -190 28
-75 46 -145 59 -232 10 -69 30 -192 44 -275 38 -222 49 -326 50 -470 2 -195
-2 -207 -96 -332 -103 -138 -118 -156 -185 -226 -31 -31 -53 -60 -49 -64 4 -4
28 -10 54 -13 39 -4 46 -8 44 -24 -3 -18 2 -19 91 -13 68 4 112 12 159 31 35
14 68 26 73 26 5 0 -11 -18 -34 -39 -24 -22 -40 -45 -36 -50 3 -6 36 -11 72
-11 56 0 66 -3 70 -20 5 -18 14 -20 117 -20 123 0 201 17 231 50 18 20 18 20
50 0 34 -21 75 -27 75 -10 0 6 -11 10 -24 10 -23 0 -43 25 -27 34 15 10 90
-20 109 -44 27 -33 41 -17 19 21 -27 47 -21 51 34 23 28 -14 53 -23 55 -21 3
2 -11 17 -31 33 -107 87 -97 69 -106 185 -5 57 -16 172 -25 254 -16 161 -28
281 -45 465 -6 63 -12 210 -12 325 -2 197 -1 213 20 265 22 52 23 69 23 285 0
129 11 436 26 700 l27 470 49 51 c68 70 74 72 423 104 256 24 562 65 745 101
107 21 302 80 354 106 26 14 30 13 53 -9 50 -45 101 -138 153 -280 68 -186
123 -290 227 -429 93 -124 104 -146 122 -236 19 -101 48 -173 102 -255 95
-144 123 -286 123 -613 0 -225 -25 -599 -44 -657 -5 -16 -20 -43 -35 -62 -14
-18 -37 -61 -51 -96 -32 -79 -48 -103 -79 -120 -13 -7 -36 -38 -51 -68 -17
-34 -56 -84 -105 -132 -44 -43 -79 -82 -79 -89 0 -11 10 -14 90 -28 36 -7 45
-13 50 -33 6 -25 8 -25 98 -23 112 2 201 24 267 64 50 31 69 33 143 13 34 -10
28 19 -8 33 -16 6 -30 16 -30 21 0 5 32 -1 72 -14 40 -13 74 -24 76 -24 2 0 1
16 -2 35 -4 20 -2 42 5 54 10 15 10 28 1 59 -8 26 -12 132 -12 313 -1 151 -5
348 -10 439 -17 301 -23 837 -10 945 6 55 14 121 17 146 6 55 -14 105 -89 224
-29 44 -66 114 -84 155 -35 83 -117 345 -135 429 -19 89 4 200 54 266 13 17
17 17 32 5 9 -7 27 -34 40 -59 13 -25 47 -68 76 -96 74 -71 335 -386 376 -453
80 -133 100 -317 55 -489 -25 -94 -27 -157 -7 -193 14 -23 14 -22 9 30 -5 47
0 73 35 179 23 68 41 133 41 143 0 43 19 3 30 -64 18 -106 16 -262 -3 -329
-20 -68 -66 -122 -99 -117 -20 3 -23 8 -20 41 2 28 -1 37 -13 37 -20 0 -21
-73 0 -94 8 -8 35 -18 60 -22 25 -3 45 -11 45 -17 0 -5 -13 -51 -29 -102 -42
-129 -55 -214 -48 -314 17 -254 135 -462 259 -461 22 1 22 1 4 15 -11 8 -30
15 -42 15 -14 0 -35 17 -62 52 -85 112 -118 220 -109 358 7 102 21 151 93 321
30 71 60 152 67 179 6 28 15 50 19 50 15 0 43 -99 43 -155 -1 -48 -10 -84 -48
-178 -39 -96 -49 -133 -54 -200 -10 -144 30 -249 138 -362 56 -60 57 -60 64
-137 4 -43 4 -91 0 -108 -9 -39 -38 -56 -59 -34 -20 20 -21 63 -1 70 8 4 15
10 15 15 0 13 -54 11 -68 -3 -30 -30 5 -116 59 -143 16 -9 29 -19 29 -23 0
-13 -51 -197 -76 -274 -27 -81 -25 -98 7 -98 10 0 19 -3 19 -7 0 -5 18 -17 40
-27 l40 -19 24 22 c23 21 26 22 49 7 22 -15 32 -15 142 9 132 29 155 38 155
63 0 13 6 9 25 -13 18 -22 24 -25 25 -13 0 9 -6 18 -12 21 -7 2 -9 8 -5 13 5
5 14 1 21 -9 16 -21 26 -22 26 -3 0 8 -13 24 -30 36 -24 17 -30 29 -30 60 0
21 -9 67 -20 102 -12 39 -20 92 -20 138 0 47 -10 110 -25 169 -14 52 -25 99
-25 103 0 23 19 1 48 -57 33 -63 100 -135 125 -135 6 0 -9 20 -35 44 -82 77
-127 191 -134 341 -6 123 5 112 40 -39 14 -58 33 -121 42 -139 20 -39 144
-205 171 -229 46 -42 132 -59 187 -38 23 8 106 119 106 142 0 5 23 31 50 57
43 41 50 52 50 86 0 21 12 62 27 93 61 124 13 272 -89 272 -20 0 -18 -5 23
-43 53 -48 64 -83 54 -162 -5 -43 -12 -57 -33 -72 -41 -27 -134 -24 -196 6
-48 24 -126 90 -126 107 0 5 16 10 36 11 42 2 64 18 64 47 0 27 -27 66 -46 66
-20 0 -18 -14 6 -35 11 -10 20 -26 20 -37 0 -31 -72 -24 -113 11 -60 53 -60
55 -67 641 -6 447 -10 545 -23 595 -19 69 -21 95 -8 95 17 0 192 -205 216
-254 17 -35 25 -67 25 -104 0 -59 -9 -83 -48 -125 -18 -19 -21 -27 -11 -27 21
0 44 20 63 55 l15 30 1 -26 c0 -42 -30 -119 -52 -130 -12 -6 -41 -9 -65 -6
-36 4 -42 2 -32 -9 6 -8 25 -14 41 -14 25 0 29 -3 23 -17 -10 -25 -24 -85 -25
-104 0 -8 7 -24 16 -35 14 -18 15 -15 9 32 -5 50 -4 54 47 128 95 137 100 150
95 241 -3 49 -13 102 -26 137 -33 86 -131 228 -226 328 -155 164 -201 235
-256 399 -44 128 -45 162 -15 279 68 263 76 398 56 917 -12 320 -31 403 -119
533 -21 32 -49 91 -61 131 -25 84 -137 260 -196 309 -49 41 -212 130 -251 138
-19 4 -82 -3 -150 -16 -142 -27 -176 -24 -315 28 -125 47 -217 68 -376 83
-240 24 -303 8 -662 -161 -344 -162 -506 -195 -779 -154 -199 29 -634 155
-762 220 -67 33 -153 110 -162 144 -4 15 -37 59 -73 96 -36 38 -72 80 -79 94
-7 14 -32 43 -54 65 -23 21 -41 43 -41 48 0 5 -19 29 -42 52 -24 24 -50 51
-59 61 -9 9 -55 55 -103 101 -47 46 -86 89 -86 94 0 5 -17 17 -37 28 -21 11
-54 35 -72 55 -19 20 -42 36 -51 36 -9 0 -30 16 -47 35 -17 19 -38 35 -47 35
-9 0 -16 6 -16 13 0 34 -239 230 -308 251 -12 4 -26 16 -32 26 -5 10 -39 43
-74 74 -46 41 -75 59 -103 63 -21 3 -65 25 -99 50 -34 23 -66 43 -72 43 -5 0
-58 31 -116 70 -138 90 -189 116 -253 125 -29 4 -92 18 -140 31 -48 13 -102
24 -119 24 -17 0 -53 10 -80 21 -43 19 -60 21 -158 16 -63 -3 -117 -2 -127 4
-29 15 -106 129 -148 219 -35 75 -39 80 -54 65 -21 -20 -31 -75 -24 -128 8
-56 -5 -77 -27 -46 -9 13 -16 28 -16 34 0 24 -22 85 -30 85 -17 0 -32 -84 -26
-148 3 -35 16 -87 29 -115 13 -29 25 -56 27 -62 2 -5 -15 -17 -38 -25 -23 -9
-54 -30 -70 -48 l-27 -33 -215 173 c-241 194 -684 551 -832 670 -53 43 -98 78
-101 78 -3 0 -7 -7 -11 -15z m7298 -2689 c69 -21 111 -58 145 -129 37 -74 53
-154 49 -238 l-3 -62 -56 84 c-31 46 -102 141 -158 212 -56 70 -99 132 -96
137 9 14 64 12 119 -4z m-4969 -864 c-3 -35 -24 -118 -46 -185 l-39 -122 3 90
c3 61 15 130 37 215 30 111 35 121 42 95 5 -17 6 -58 3 -93z m1293 -1510 c43
-99 73 -231 107 -466 20 -133 42 -284 51 -336 11 -72 13 -133 8 -251 -6 -152
-6 -158 19 -220 14 -35 35 -110 47 -167 22 -101 22 -110 13 -535 -6 -267 -14
-442 -21 -457 -6 -14 -11 -20 -11 -15 -3 37 -39 240 -86 475 -87 443 -104 624
-69 735 27 83 21 231 -19 475 -19 118 -40 287 -46 375 -6 88 -17 194 -25 235
-8 41 -18 108 -22 149 -7 71 -6 73 13 63 11 -6 30 -33 41 -60z m3844 -1384 c3
-99 8 -122 35 -183 34 -78 47 -131 33 -140 -5 -3 -25 9 -44 26 -45 39 -66 106
-66 207 0 83 18 202 30 202 4 0 10 -51 12 -112z"/>
</g>
</svg>
